<svg t="1565104167313" class="icon" viewBox="0 0 1024 1024" version="1.1" xmlns="http://www.w3.org/2000/svg" p-id="9136" width="200" height="200"><path d="M860.58 489.4c-0.09-47.06-29.76-88.04-72.49-101.63-16.6-5.3-33.82-6.09-51.12-5.3-7.68 0.35-12.01 0.71-11.12-10.95 2.12-28.52 2.47-57.39 1.23-86.09-4.06-94.48-70.11-174.13-163.18-198.41-88.3-23.04-182.87 15.72-233.64 93.86-40.62 62.34-35.23 130.94-31.97 201.58-11.92 0-22.69-0.26-33.38 0-56.25 1.5-101.1 46-101.37 102.16-0.53 117.88-0.62 235.75 0 353.63 0.35 57.31 44.94 104.2 101.9 104.54 165.29 1.06 330.68 0.97 495.97 0 55.01-0.35 98.9-46.71 99.16-101.89 0.45-117.15 0.36-234.33 0.01-351.5zM566.02 666.18c-8.65 6.53-11.3 12.72-11.04 22.87 0.62 25.78 0.44 51.66 0.18 77.44-0.44 29.76-17.31 47.68-43.97 47.24-25.7-0.35-41.77-18.01-42.21-46.8-0.26-15.1-0.44-30.11 0-45.21 0.8-26.23-0.09-48.39-23.75-69.58-25.52-22.95-25.96-57.83-10.95-89.88 15.54-33.03 42.91-48.39 72.4-50.51 42.12 0.44 75.76 25.34 87.33 59.96 11.47 34.51 1.06 72.48-27.99 94.47z m59.86-283.44c-37.35-0.71-74.7-0.27-112.05-0.27-38.06 0-76.2-0.79-114.26 0.35-14.84 0.45-17.75-4.68-17.22-18.1 1.06-22.96 0.09-46 0.35-68.96 0.8-71.88 57.39-128.65 128.48-129 71.17-0.35 128.65 55.8 130.15 127.68 0.53 24.46-0.71 48.92 0.35 73.29 0.54 12.88-4.23 15.18-15.8 15.01z" p-id="9137" fill="#969696"></path></svg>